<svg width="179" height="61" viewBox="0 0 179 61" fill="none" xmlns="http://www.w3.org/2000/svg">
<g filter="url(#filter0_d)">
<rect x="3" width="173" height="53.5685" rx="10" fill="#FFCC42"/>
<path d="M37.78 27.8C37.78 26.9467 37.9267 26.1 38.22 25.26C38.5267 24.4067 38.9667 23.6467 39.54 22.98C40.1267 22.3 40.84 21.7533 41.68 21.34C42.52 20.9267 43.4733 20.72 44.54 20.72C45.8067 20.72 46.8933 21.0067 47.8 21.58C48.7067 22.1533 49.38 22.9 49.82 23.82L48.4 24.74C48.1867 24.2867 47.9267 23.9067 47.62 23.6C47.3267 23.2933 47 23.0467 46.64 22.86C46.2933 22.6733 45.9333 22.54 45.56 22.46C45.1867 22.38 44.82 22.34 44.46 22.34C43.6733 22.34 42.9733 22.5067 42.36 22.84C41.76 23.16 41.2533 23.5867 40.84 24.12C40.4267 24.64 40.1133 25.2333 39.9 25.9C39.7 26.5533 39.6 27.2133 39.6 27.88C39.6 28.6267 39.72 29.34 39.96 30.02C40.2133 30.6867 40.56 31.28 41 31.8C41.44 32.32 41.96 32.7333 42.56 33.04C43.16 33.3467 43.8133 33.5 44.52 33.5C44.8933 33.5 45.2733 33.4533 45.66 33.36C46.06 33.2667 46.44 33.12 46.8 32.92C47.16 32.7067 47.4933 32.4467 47.8 32.14C48.12 31.82 48.38 31.44 48.58 31L50.08 31.82C49.8533 32.3533 49.5333 32.8267 49.12 33.24C48.72 33.64 48.26 33.98 47.74 34.26C47.2333 34.54 46.6933 34.7533 46.12 34.9C45.5467 35.0467 44.9867 35.12 44.44 35.12C43.4667 35.12 42.5733 34.9067 41.76 34.48C40.9467 34.0533 40.24 33.5 39.64 32.82C39.0533 32.1267 38.5933 31.3467 38.26 30.48C37.94 29.6 37.78 28.7067 37.78 27.8ZM55.2728 35.2C54.1795 35.2 53.3528 34.8333 52.7928 34.1C52.2328 33.3667 51.9528 32.2733 51.9528 30.82V24.56H53.7128V30.48C53.7128 32.6133 54.4528 33.68 55.9328 33.68C56.6528 33.68 57.3261 33.4533 57.9528 33C58.5928 32.5333 59.0661 31.9 59.3728 31.1V24.56H61.1328V32.84C61.1328 33.2533 61.3195 33.4667 61.6928 33.48V35C61.4928 35.0267 61.3328 35.04 61.2128 35.04C61.1061 35.0533 60.9995 35.06 60.8928 35.06C60.5461 35.06 60.2528 34.96 60.0128 34.76C59.7861 34.5467 59.6661 34.2867 59.6528 33.98L59.6128 32.76C59.1461 33.5467 58.5328 34.1533 57.7728 34.58C57.0128 34.9933 56.1795 35.2 55.2728 35.2ZM69.5845 26.1C68.7045 26.1267 67.9245 26.3533 67.2445 26.78C66.5779 27.2067 66.1045 27.8 65.8245 28.56V35H64.0645V24.56H65.7045V26.98C66.0645 26.26 66.5379 25.68 67.1245 25.24C67.7112 24.7867 68.3379 24.5333 69.0045 24.48C69.1379 24.48 69.2512 24.48 69.3445 24.48C69.4379 24.48 69.5179 24.4867 69.5845 24.5V26.1ZM76.8502 26.1C75.9702 26.1267 75.1902 26.3533 74.5102 26.78C73.8435 27.2067 73.3702 27.8 73.0902 28.56V35H71.3302V24.56H72.9702V26.98C73.3302 26.26 73.8035 25.68 74.3902 25.24C74.9768 24.7867 75.6035 24.5333 76.2702 24.48C76.4035 24.48 76.5168 24.48 76.6102 24.48C76.7035 24.48 76.7835 24.4867 76.8502 24.5V26.1ZM78.5958 35V24.56H80.3558V35H78.5958ZM78.5958 22.6V20.4H80.3558V22.6H78.5958ZM82.5052 29.76C82.5052 29.0267 82.6318 28.3333 82.8852 27.68C83.1385 27.0267 83.4985 26.46 83.9652 25.98C84.4318 25.4867 84.9852 25.1 85.6252 24.82C86.2785 24.5267 87.0052 24.38 87.8052 24.38C88.8452 24.38 89.7385 24.6133 90.4852 25.08C91.2452 25.5333 91.8185 26.1467 92.2052 26.92L90.4852 27.46C90.2185 26.9667 89.8452 26.5867 89.3652 26.32C88.8852 26.04 88.3518 25.9 87.7652 25.9C87.2852 25.9 86.8318 26 86.4052 26.2C85.9785 26.3867 85.6118 26.6533 85.3052 27C84.9985 27.3467 84.7518 27.7533 84.5652 28.22C84.3918 28.6867 84.3052 29.2 84.3052 29.76C84.3052 30.3067 84.3985 30.82 84.5852 31.3C84.7718 31.78 85.0185 32.2 85.3252 32.56C85.6452 32.9067 86.0118 33.18 86.4252 33.38C86.8518 33.58 87.3052 33.68 87.7852 33.68C88.0918 33.68 88.3918 33.64 88.6852 33.56C88.9918 33.4667 89.2652 33.3467 89.5052 33.2C89.7585 33.0533 89.9785 32.8867 90.1652 32.7C90.3518 32.5 90.4852 32.2867 90.5652 32.06L92.2852 32.58C92.1252 32.9667 91.8985 33.32 91.6052 33.64C91.3252 33.96 90.9918 34.2333 90.6052 34.46C90.2185 34.6867 89.7852 34.8667 89.3052 35C88.8385 35.1333 88.3452 35.2 87.8252 35.2C87.0385 35.2 86.3185 35.0533 85.6652 34.76C85.0118 34.4667 84.4518 34.0733 83.9852 33.58C83.5185 33.0867 83.1518 32.5133 82.8852 31.86C82.6318 31.1933 82.5052 30.4933 82.5052 29.76ZM97.4994 35.2C96.406 35.2 95.5794 34.8333 95.0194 34.1C94.4594 33.3667 94.1794 32.2733 94.1794 30.82V24.56H95.9394V30.48C95.9394 32.6133 96.6794 33.68 98.1594 33.68C98.8794 33.68 99.5527 33.4533 100.179 33C100.819 32.5333 101.293 31.9 101.599 31.1V24.56H103.359V32.84C103.359 33.2533 103.546 33.4667 103.919 33.48V35C103.719 35.0267 103.559 35.04 103.439 35.04C103.333 35.0533 103.226 35.06 103.119 35.06C102.773 35.06 102.479 34.96 102.239 34.76C102.013 34.5467 101.893 34.2867 101.879 33.98L101.839 32.76C101.373 33.5467 100.759 34.1533 99.9994 34.58C99.2394 34.9933 98.406 35.2 97.4994 35.2ZM106.331 20.4H108.091V32.3C108.091 32.6867 108.191 32.9933 108.391 33.22C108.604 33.4333 108.898 33.54 109.271 33.54C109.418 33.54 109.591 33.52 109.791 33.48C109.991 33.4267 110.178 33.3667 110.351 33.3L110.631 34.72C110.338 34.84 109.991 34.94 109.591 35.02C109.191 35.1 108.838 35.14 108.531 35.14C107.851 35.14 107.311 34.9467 106.911 34.56C106.524 34.1733 106.331 33.6333 106.331 32.94V20.4ZM115.234 35.2C114.14 35.2 113.314 34.8333 112.754 34.1C112.194 33.3667 111.914 32.2733 111.914 30.82V24.56H113.674V30.48C113.674 32.6133 114.414 33.68 115.894 33.68C116.614 33.68 117.287 33.4533 117.914 33C118.554 32.5333 119.027 31.9 119.334 31.1V24.56H121.094V32.84C121.094 33.2533 121.28 33.4667 121.654 33.48V35C121.454 35.0267 121.294 35.04 121.174 35.04C121.067 35.0533 120.96 35.06 120.854 35.06C120.507 35.06 120.214 34.96 119.974 34.76C119.747 34.5467 119.627 34.2867 119.614 33.98L119.574 32.76C119.107 33.5467 118.494 34.1533 117.734 34.58C116.974 34.9933 116.14 35.2 115.234 35.2ZM139.765 35H138.005V29.16C138.005 28.0667 137.825 27.26 137.465 26.74C137.119 26.22 136.599 25.96 135.905 25.96C135.185 25.96 134.539 26.22 133.965 26.74C133.405 27.2467 133.005 27.9067 132.765 28.72V35H131.005V29.16C131.005 28.04 130.832 27.2267 130.485 26.72C130.139 26.2133 129.619 25.96 128.925 25.96C128.219 25.96 127.579 26.2133 127.005 26.72C126.432 27.2133 126.025 27.8733 125.785 28.7V35H124.025V24.56H125.625V26.8C126.052 26.0267 126.605 25.4333 127.285 25.02C127.965 24.5933 128.732 24.38 129.585 24.38C130.465 24.38 131.159 24.62 131.665 25.1C132.185 25.5667 132.505 26.1733 132.625 26.92C133.559 25.2267 134.885 24.38 136.605 24.38C137.205 24.38 137.705 24.4933 138.105 24.72C138.519 24.9333 138.845 25.24 139.085 25.64C139.325 26.0267 139.499 26.4867 139.605 27.02C139.712 27.5533 139.765 28.1333 139.765 28.76V35Z" fill="#2B2C2D"/>
</g>
<defs>
<filter id="filter0_d" x="0" y="0" width="179" height="60.5685" filterUnits="userSpaceOnUse" color-interpolation-filters="sRGB">
<feFlood flood-opacity="0" result="BackgroundImageFix"/>
<feColorMatrix in="SourceAlpha" type="matrix" values="0 0 0 0 0 0 0 0 0 0 0 0 0 0 0 0 0 0 127 0"/>
<feOffset dy="4"/>
<feGaussianBlur stdDeviation="1.5"/>
<feColorMatrix type="matrix" values="0 0 0 0 0.7375 0 0 0 0 0.68526 0 0 0 0 0.68526 0 0 0 0.25 0"/>
<feBlend mode="normal" in2="BackgroundImageFix" result="effect1_dropShadow"/>
<feBlend mode="normal" in="SourceGraphic" in2="effect1_dropShadow" result="shape"/>
</filter>
</defs>
</svg>
