<svg width="269" height="38" viewBox="0 0 269 38" fill="none" xmlns="http://www.w3.org/2000/svg">
<path d="M268.464 9.592C268.752 7 259.536 7.864 257.808 7.864C252.048 7 246 6.712 240.24 6.424C228.144 5.55999 216.048 5.55999 203.664 5.55999C182.064 5.55999 160.464 6.13599 138.864 7C117.84 7.864 96.816 7.864 75.792 7.864C70.896 7.864 65.712 8.152 60.528 7.864C55.632 7.864 52.464 6.424 47.856 5.272C43.824 4.11999 39.792 5.272 35.472 5.272C30.864 5.55999 26.256 5.272 21.648 4.984C17.328 4.696 12.72 4.408 8.688 2.10399C5.52 0.0879946 3.216 -1.352 1.488 3.256C-1.392 10.168 0.336001 18.52 4.08 24.568C6.672 28.6 9.552 32.344 14.16 33.496C18.48 34.936 20.784 32.632 24.816 31.48C32.592 29.176 44.112 30.616 51.024 34.072C59.088 38.392 69.456 37.528 78.096 37.24C86.448 36.664 94.8 35.512 102.864 34.936C113.808 34.072 124.464 33.784 135.12 32.92C144.912 32.344 154.704 30.616 164.784 30.328C173.424 29.752 182.64 28.888 191.28 28.024L219.216 24.856C222.096 24.568 225.552 24.568 228.144 23.416C230.16 22.552 231.024 20.824 233.04 19.96C236.784 18.232 242.832 19.096 247.152 18.808C249.168 18.808 256.368 19.672 257.232 16.792C258.672 13.048 251.76 12.76 249.744 13.624C249.168 8.152 252.048 10.744 256.368 10.744C260.112 10.744 265.008 10.744 268.464 9.592Z" fill="#A9C9CA"/>
</svg>
