<svg width="179" height="61" viewBox="0 0 179 61" fill="none" xmlns="http://www.w3.org/2000/svg">
<g filter="url(#filter0_d)">
<rect x="3" width="173" height="53.5685" rx="10" fill="#FFCC42"/>
<path d="M74.34 33.4V35H64.7V20.8H74.16V22.4H66.5V27H73.16V28.5H66.5V33.4H74.34ZM92.1717 35H90.4117V29.16C90.4117 28.0667 90.2317 27.26 89.8717 26.74C89.5251 26.22 89.0051 25.96 88.3117 25.96C87.5917 25.96 86.9451 26.22 86.3717 26.74C85.8117 27.2467 85.4117 27.9067 85.1717 28.72V35H83.4117V29.16C83.4117 28.04 83.2384 27.2267 82.8917 26.72C82.5451 26.2133 82.0251 25.96 81.3317 25.96C80.6251 25.96 79.9851 26.2133 79.4117 26.72C78.8384 27.2133 78.4317 27.8733 78.1917 28.7V35H76.4317V24.56H78.0317V26.8C78.4584 26.0267 79.0117 25.4333 79.6917 25.02C80.3717 24.5933 81.1384 24.38 81.9917 24.38C82.8717 24.38 83.5651 24.62 84.0717 25.1C84.5917 25.5667 84.9117 26.1733 85.0317 26.92C85.9651 25.2267 87.2917 24.38 89.0117 24.38C89.6117 24.38 90.1117 24.4933 90.5117 24.72C90.9251 24.9333 91.2517 25.24 91.4917 25.64C91.7317 26.0267 91.9051 26.4867 92.0117 27.02C92.1184 27.5533 92.1717 28.1333 92.1717 28.76V35ZM97.5883 35.2C97.0949 35.2 96.6349 35.12 96.2083 34.96C95.7816 34.7867 95.4083 34.5533 95.0883 34.26C94.7816 33.9667 94.5349 33.6267 94.3483 33.24C94.1749 32.84 94.0883 32.4067 94.0883 31.94C94.0883 31.46 94.1949 31.0267 94.4083 30.64C94.6216 30.24 94.9216 29.9 95.3083 29.62C95.7083 29.34 96.1749 29.12 96.7083 28.96C97.2549 28.8 97.8483 28.72 98.4883 28.72C98.9949 28.72 99.5083 28.7667 100.028 28.86C100.548 28.9533 101.008 29.08 101.408 29.24V28.4C101.408 27.5467 101.168 26.88 100.688 26.4C100.208 25.9067 99.5283 25.66 98.6483 25.66C97.5949 25.66 96.4883 26.0667 95.3283 26.88L94.7483 25.74C96.0949 24.8333 97.4483 24.38 98.8083 24.38C100.182 24.38 101.248 24.7467 102.008 25.48C102.782 26.2133 103.168 27.2467 103.168 28.58V32.84C103.168 33.2533 103.355 33.4667 103.728 33.48V35C103.542 35.0267 103.388 35.0467 103.268 35.06C103.148 35.0733 103.022 35.08 102.888 35.08C102.542 35.08 102.262 34.98 102.048 34.78C101.848 34.5667 101.728 34.3133 101.688 34.02L101.648 33.28C101.182 33.9067 100.588 34.3867 99.8683 34.72C99.1616 35.04 98.4016 35.2 97.5883 35.2ZM98.0483 33.88C98.6749 33.88 99.2549 33.7667 99.7883 33.54C100.335 33.3 100.748 32.9867 101.028 32.6C101.282 32.3467 101.408 32.0867 101.408 31.82V30.28C100.555 29.9467 99.6683 29.78 98.7483 29.78C97.8683 29.78 97.1483 29.9667 96.5883 30.34C96.0416 30.7133 95.7683 31.2 95.7683 31.8C95.7683 32.0933 95.8216 32.3667 95.9283 32.62C96.0483 32.8733 96.2083 33.0933 96.4083 33.28C96.6216 33.4667 96.8683 33.6133 97.1483 33.72C97.4283 33.8267 97.7283 33.88 98.0483 33.88ZM105.983 35V24.56H107.743V35H105.983ZM105.983 22.6V20.4H107.743V22.6H105.983ZM110.632 20.4H112.392V32.3C112.392 32.6867 112.492 32.9933 112.692 33.22C112.905 33.4333 113.199 33.54 113.572 33.54C113.719 33.54 113.892 33.52 114.092 33.48C114.292 33.4267 114.479 33.3667 114.652 33.3L114.932 34.72C114.639 34.84 114.292 34.94 113.892 35.02C113.492 35.1 113.139 35.14 112.832 35.14C112.152 35.14 111.612 34.9467 111.212 34.56C110.825 34.1733 110.632 33.6333 110.632 32.94V20.4Z" fill="#2B2C2D"/>
</g>
<defs>
<filter id="filter0_d" x="0" y="0" width="179" height="60.5685" filterUnits="userSpaceOnUse" color-interpolation-filters="sRGB">
<feFlood flood-opacity="0" result="BackgroundImageFix"/>
<feColorMatrix in="SourceAlpha" type="matrix" values="0 0 0 0 0 0 0 0 0 0 0 0 0 0 0 0 0 0 127 0"/>
<feOffset dy="4"/>
<feGaussianBlur stdDeviation="1.5"/>
<feColorMatrix type="matrix" values="0 0 0 0 0.7375 0 0 0 0 0.68526 0 0 0 0 0.68526 0 0 0 0.25 0"/>
<feBlend mode="normal" in2="BackgroundImageFix" result="effect1_dropShadow"/>
<feBlend mode="normal" in="SourceGraphic" in2="effect1_dropShadow" result="shape"/>
</filter>
</defs>
</svg>
